<svg xmlns="http://www.w3.org/2000/svg" viewBox="0 0 192 192" role="img" aria-label="CircuitClub">
  <rect width="192" height="192" rx="36" fill="#071113"/>
  <path d="M96 17 164 56v80l-68 39-68-39V56z" fill="#102326" stroke="#6fffd0" stroke-width="9"/>
  <path d="M66 75c9-15 24-22 44-20 12 2 23 8 31 17l-16 18c-6-6-13-9-20-10-12-2-21 3-27 13s-6 21 0 31 15 15 27 13c7-1 14-4 20-10l16 18c-8 9-19 15-31 17-20 2-35-5-44-20-10-19-10-48 0-67z" fill="#eaf4f1"/>
  <circle cx="96" cy="96" r="11" fill="#ff6f61"/>
</svg>
